HIERARCHY
ROOT Hips
{
	OFFSET 0.000000 0.000000 0.000000
	CHANNELS 6 Xposition Yposition Zposition Zrotation Yrotation Xrotation 
	JOINT LHipJoint
	{
		OFFSET 0.000000 0.000000 0.000000
		CHANNELS 3 Zrotation Yrotation Xrotation
		JOINT LeftUpLeg
		{
			OFFSET 1.363060 -1.794630 0.839290
			CHANNELS 3 Zrotation Yrotation Xrotation
			JOINT LeftLeg
			{
				OFFSET 2.448110 -6.726130 0.000000
				CHANNELS 3 Zrotation Yrotation Xrotation
				JOINT LeftFoot
				{
					OFFSET 2.562200 -7.039590 0.000000
					CHANNELS 3 Zrotation Yrotation Xrotation
					JOINT LeftToeBase
					{
						OFFSET 0.157640 -0.433110 2.322550
						CHANNELS 3 Zrotation Yrotation Xrotation
						End Site
						{
							OFFSET 0.000000 0.000000 0.000000
						}
					}
				}
			}
		}
	}
	JOINT RHipJoint
	{
		OFFSET 0.000000 0.000000 0.000000
		CHANNELS 3 Zrotation Yrotation Xrotation
		JOINT RightUpLeg
		{
			OFFSET -1.305520 -1.794630 0.839290
			CHANNELS 3 Zrotation Yrotation Xrotation
			JOINT RightLeg
			{
				OFFSET -2.542530 -6.985550 0.000000
				CHANNELS 3 Zrotation Yrotation Xrotation
				JOINT RightFoot
				{
					OFFSET -2.568260 -7.056230 0.000000
					CHANNELS 3 Zrotation Yrotation Xrotation
					JOINT RightToeBase
					{
						OFFSET -0.164730 -0.452590 2.363150
						CHANNELS 3 Zrotation Yrotation Xrotation
						End Site
						{
							OFFSET 0.000000 0.000000 0.000000
						}
					}
				}
			}
		}
	}
	JOINT LowerBack
	{
		OFFSET 0.000000 0.000000 0.000000
		CHANNELS 3 Zrotation Yrotation Xrotation
		JOINT Spine
		{
			OFFSET 0.028270 2.035590 -0.193380
			CHANNELS 3 Zrotation Yrotation Xrotation
			JOINT Spine1
			{
				OFFSET 0.056720 2.048850 -0.042750
				CHANNELS 3 Zrotation Yrotation Xrotation
				JOINT Neck
				{
					OFFSET 0.000000 0.000000 0.000000
					CHANNELS 3 Zrotation Yrotation Xrotation
					JOINT Neck1
					{
						OFFSET -0.054170 1.746240 0.172020
						CHANNELS 3 Zrotation Yrotation Xrotation
						JOINT Head
						{
							OFFSET 0.104070 1.761360 -0.123970
							CHANNELS 3 Zrotation Yrotation Xrotation
							End Site
							{
								OFFSET 0.000000 0.000000 0.000000
							}
						}
					}
				}
				JOINT LeftShoulder
				{
					OFFSET 0.000000 0.000000 0.000000
					CHANNELS 3 Zrotation Yrotation Xrotation
					JOINT LeftArm
					{
						OFFSET 3.362410 1.200890 -0.311210
						CHANNELS 3 Zrotation Yrotation Xrotation
						JOINT LeftForeArm
						{
							OFFSET 4.983000 -0.000000 -0.000000
							CHANNELS 3 Zrotation Yrotation Xrotation
							JOINT LeftHand
							{
								OFFSET 3.483560 -0.000000 -0.000000
								CHANNELS 3 Zrotation Yrotation Xrotation
								JOINT LeftFingerBase
								{
									OFFSET 0.000000 0.000000 0.000000
									CHANNELS 3 Zrotation Yrotation Xrotation
									JOINT LeftHandIndex1
									{
										OFFSET 0.715260 -0.000000 -0.000000
										CHANNELS 3 Zrotation Yrotation Xrotation
										End Site
										{
											OFFSET 0.000000 0.000000 0.000000
										}
									}
								}
								JOINT LThumb
								{
									OFFSET 0.000000 0.000000 0.000000
									CHANNELS 3 Zrotation Yrotation Xrotation
									End Site
									{
										OFFSET 0.000000 0.000000 0.000000
									}
								}
							}
						}
					}
				}
				JOINT RightShoulder
				{
					OFFSET 0.000000 0.000000 0.000000
					CHANNELS 3 Zrotation Yrotation Xrotation
					JOINT RightArm
					{
						OFFSET -3.136600 1.374050 -0.404650
						CHANNELS 3 Zrotation Yrotation Xrotation
						JOINT RightForeArm
						{
							OFFSET -5.241900 -0.000000 -0.000000
							CHANNELS 3 Zrotation Yrotation Xrotation
							JOINT RightHand
							{
								OFFSET -3.444170 -0.000000 -0.000000
								CHANNELS 3 Zrotation Yrotation Xrotation
								JOINT RightFingerBase
								{
									OFFSET 0.000000 0.000000 0.000000
									CHANNELS 3 Zrotation Yrotation Xrotation
									JOINT RightHandIndex1
									{
										OFFSET -0.622530 -0.000000 -0.000000
										CHANNELS 3 Zrotation Yrotation Xrotation
										End Site
										{
											OFFSET 0.000000 0.000000 0.000000
										}
									}
								}
								JOINT RThumb
								{
									OFFSET 0.000000 0.000000 0.000000
									CHANNELS 3 Zrotation Yrotation Xrotation
									End Site
									{
										OFFSET 0.000000 0.000000 0.000000
									}
								}
							}
						}
					}
				}
			}
		}
	}
}
MOTION
Frames: 10
Frame Time: 0.016667
-0.000493 18.078181 -0.000493 -0.638247 -13.479563 3.264827 -1.709923 21.937773 4.617887 -19.764659 -2.952263 -12.133225 -7.360249 -6.497171 -23.765973 2.712220 16.641846 36.528919 0.000000 0.000000 0.000000 0.913739 -37.073272 -5.401902 50.341216 22.713048 -6.241424 -23.029894 10.208498 42.175060 -4.791604 20.705165 -23.770321 0.000000 0.000000 0.000000 -0.849144 4.207368 7.322026 1.197141 3.471669 12.729512 -0.766528 4.358225 -12.956913 4.707324 -0.687151 -6.960335 -0.658952 -0.060526 -0.461812 0.000000 0.000000 0.000000 -1.984711 14.315734 9.747692 -69.558395 -5.729787 8.900140 10.819939 -89.938914 0.155215 5.697102 -11.845865 0.071953 5.761533 -11.819773 0.000000 0.000000 0.000000 0.000000 0.000000 0.000000 0.000000 -2.380621 -10.958367 7.479681 64.322322 3.458196 21.643487 13.727024 80.054575 0.376645 -1.246262 11.866770 0.185709 -1.269316 11.868490 0.000000 0.000000 0.000000 0.000000 0.000000 0.000000 0.000000 
0.005229 18.105833 0.154425 -0.459537 -13.535986 3.237461 -1.335962 21.987056 4.449805 -20.408022 -2.839365 -11.632218 -7.197909 -6.174050 -22.679281 2.340160 15.706206 34.394428 0.000000 0.000000 0.000000 0.601968 -36.868033 -5.024851 49.621916 22.904767 -6.569961 -22.444875 9.829378 42.828262 -4.779895 20.723277 -24.494168 0.000000 0.000000 0.000000 -0.711757 4.132045 6.962702 0.599108 3.408545 13.285156 -0.633093 4.234981 -12.486638 4.909477 -0.663164 -7.311096 -0.554195 -0.035794 -0.867205 0.000000 0.000000 0.000000 -1.373923 14.128570 9.463000 -69.686623 -6.276829 8.531860 10.909628 -89.999007 0.101662 6.043776 -12.099484 0.044263 6.119104 -12.068481 0.000000 0.000000 0.000000 0.000000 0.000000 0.000000 0.000000 -3.105610 -10.654931 7.599936 65.342657 4.118672 20.800958 15.641923 78.203675 0.395973 -1.028118 12.312673 0.195255 -1.050860 12.315172 0.000000 0.000000 0.000000 0.000000 0.000000 0.000000 0.000000 
0.015175 18.136714 0.310720 -0.289643 -13.587240 3.228729 -1.059549 22.038961 4.312055 -20.947190 -2.767853 -11.249592 -7.046344 -5.821575 -21.528660 2.004925 14.787147 32.282717 0.000000 0.000000 0.000000 0.296592 -36.638371 -4.588004 48.840047 23.133303 -6.980665 -21.831748 9.440215 43.441722 -4.767029 20.743488 -25.153312 0.000000 0.000000 0.000000 -0.486365 4.057483 6.507359 -0.070345 3.350316 13.987155 -0.515373 4.100685 -12.082653 5.110998 -0.637366 -7.664055 -0.445536 -0.009576 -1.278449 0.000000 0.000000 0.000000 -0.767471 13.953492 9.169918 -69.773849 -6.819378 8.168170 -168.996458 -89.945124 -179.953815 6.396814 -12.347079 0.015536 6.483605 -12.310791 0.000000 0.000000 0.000000 0.000000 0.000000 0.000000 0.000000 -3.842520 -10.387381 7.691909 66.370848 4.807681 19.858880 17.609099 76.213461 0.415666 -0.799138 12.751173 0.205011 -0.821115 12.754465 0.000000 0.000000 0.000000 0.000000 0.000000 0.000000 0.000000 
0.026327 18.168251 0.465013 -0.264495 -13.215193 3.002182 -0.400867 22.171748 4.112246 -21.622662 -2.802179 -10.797542 -7.126227 -5.306776 -19.589960 1.643274 13.544243 29.724552 0.000000 0.000000 0.000000 -0.559980 -36.220428 -4.597635 48.245849 22.274870 -6.505902 -20.716805 8.633243 43.225162 -4.641673 20.677193 -26.056310 0.000000 0.000000 0.000000 -0.224303 3.904339 6.450887 -0.320937 3.200267 14.520305 -0.640105 3.923873 -12.000514 5.213233 -0.602458 -7.857097 -0.293346 0.013415 -1.484362 0.000000 0.000000 0.000000 -0.586814 13.895267 9.008913 -69.757844 -7.016716 8.086560 -168.886785 -89.920562 -179.960212 6.451301 -12.358531 0.012236 6.539238 -12.321547 0.000000 0.000000 0.000000 0.000000 0.000000 0.000000 0.000000 -4.301189 -10.409823 7.774622 67.075131 5.181603 19.120267 19.110020 74.563954 0.425340 -0.614596 12.985721 0.209860 -0.635392 12.989557 0.000000 0.000000 0.000000 0.000000 0.000000 0.000000 0.000000 
0.039114 18.200748 0.617935 -0.260371 -12.786499 2.776546 0.203120 22.276478 3.897735 -22.219749 -2.864435 -10.407283 -7.184130 -4.756246 -17.566101 1.327142 12.331609 27.247785 0.000000 0.000000 0.000000 -1.399561 -35.704277 -4.615506 47.588616 21.377711 -6.032920 -19.536993 7.783434 42.917526 -4.497666 20.576496 -26.920137 0.000000 0.000000 0.000000 0.058694 3.729416 6.398159 -0.556276 3.032712 15.051011 -0.773236 3.730106 -11.921480 5.313007 -0.567320 -8.046688 -0.140283 0.036785 -1.684159 0.000000 0.000000 0.000000 -0.403201 13.833150 8.851482 -69.738924 -7.209777 8.005824 -168.779042 -89.896092 -179.966390 6.503911 -12.368586 0.009050 6.592948 -12.330927 0.000000 0.000000 0.000000 0.000000 0.000000 0.000000 0.000000 -4.771115 -10.449300 7.849424 67.784513 5.573852 18.311488 20.606588 72.819525 0.433984 -0.431442 13.207260 0.214213 -0.450894 13.211586 0.000000 0.000000 0.000000 0.000000 0.000000 0.000000 0.000000 
0.081175 18.253315 0.797388 -0.168724 -12.856651 2.733293 0.015339 22.151181 3.902581 -22.278660 -2.772273 -10.181171 -6.884804 -4.401865 -16.617768 1.104527 11.655623 25.557309 0.000000 0.000000 0.000000 -2.265069 -35.270193 -3.897706 46.648965 21.216244 -6.318729 -18.188216 7.128959 42.712239 -4.528840 20.771575 -27.491195 0.000000 0.000000 0.000000 1.254884 3.843868 5.463341 -1.889664 3.160300 16.542749 -0.800168 3.632224 -12.034832 4.719132 -0.383268 -7.256244 0.399164 0.124285 -2.304329 0.000000 0.000000 0.000000 -0.472685 13.500650 8.746490 -69.425903 -7.294408 8.623583 10.389576 -89.653582 0.036047 6.521336 -12.646982 0.009831 6.614689 -12.608191 0.000000 0.000000 0.000000 0.000000 0.000000 0.000000 0.000000 -4.188441 -10.721367 7.461506 67.626142 5.551388 18.632063 19.672199 73.770737 0.439737 -0.565117 13.316293 0.216928 -0.586200 13.320380 0.000000 0.000000 0.000000 0.000000 0.000000 0.000000 0.000000 
0.125149 18.306286 0.975837 -0.066893 -12.906517 2.717286 -0.245437 21.989133 3.891399 -22.279695 -2.690243 -10.006091 -6.600852 -4.034782 -15.665435 0.910162 11.024788 23.952714 0.000000 0.000000 0.000000 -3.070082 -34.781584 -3.174765 45.616722 21.087818 -6.684934 -16.796687 6.469002 42.466009 -4.533482 20.941858 -28.012778 0.000000 0.000000 0.000000 2.474096 3.967053 4.553747 -3.253654 3.301267 17.873827 -0.768936 3.511102 -12.027814 4.083949 -0.216056 -6.430319 0.861856 0.198208 -2.724159 0.000000 0.000000 0.000000 -0.411864 13.142239 8.587205 -69.020103 -7.395606 9.657784 8.875415 -88.930930 0.031030 6.571058 -13.131920 0.006411 6.673555 -13.090671 0.000000 0.000000 0.000000 0.000000 0.000000 0.000000 0.000000 -3.641960 -10.943744 7.091952 67.476224 5.557651 18.925746 18.667057 74.728241 0.444050 -0.714975 13.414494 0.218916 -0.737884 13.418246 0.000000 0.000000 0.000000 0.000000 0.000000 0.000000 0.000000 
0.167969 18.357681 1.150967 -0.031469 -13.005742 2.737678 -0.581214 21.742849 3.907273 -22.134537 -2.556710 -9.809449 -6.275508 -3.759142 -15.040461 0.762874 10.542828 22.627692 0.000000 0.000000 0.000000 -3.820504 -34.255178 -2.394852 44.490262 20.931513 -7.093747 -15.199241 5.784546 42.021485 -4.551330 21.177414 -28.560958 0.000000 0.000000 0.000000 3.663251 4.105973 3.577684 -4.531528 3.470075 19.416938 -0.736091 3.395239 -12.268500 3.717407 -0.104789 -5.992710 1.161437 0.248620 -3.013031 0.000000 0.000000 0.000000 -0.424355 12.947686 8.451266 -68.749070 -7.591835 10.008768 8.388493 -88.689482 0.023705 6.627249 -13.321043 0.002300 6.734309 -13.278308 0.000000 0.000000 0.000000 0.000000 0.000000 0.000000 0.000000 -3.282311 -11.162770 6.823755 67.425192 5.590394 19.036806 18.200430 75.113168 0.447838 -0.791604 13.480180 0.220719 -0.815430 13.483763 0.000000 0.000000 0.000000 0.000000 0.000000 0.000000 0.000000 
0.211526 18.408575 1.324443 0.015711 -13.069244 2.772184 -0.973605 21.461646 3.913200 -21.943726 -2.432750 -9.646789 -5.970778 -3.477612 -14.413594 0.633236 10.094131 21.369304 0.000000 0.000000 0.000000 -4.505995 -33.674201 -1.613179 43.253503 20.797793 -7.572204 -13.526223 5.085430 41.527678 -4.531867 21.369287 -29.067193 0.000000 0.000000 0.000000 4.855262 4.261904 2.614293 -5.824168 3.658053 20.891651 -0.683746 3.264492 -12.472199 3.364562 0.006784 -5.558436 1.458441 0.298409 -3.276038 0.000000 0.000000 0.000000 -0.414203 12.738945 8.328541 -68.494295 -7.790489 10.343872 7.918656 -88.457773 0.016213 6.682808 -13.505008 -0.001899 6.794443 -13.460790 0.000000 0.000000 0.000000 0.000000 0.000000 0.000000 0.000000 -2.941736 -11.381480 6.564004 67.386717 5.619479 19.139015 17.743171 75.485915 0.451391 -0.868230 13.544052 0.222404 -0.892993 13.547453 0.000000 0.000000 0.000000 0.000000 0.000000 0.000000 0.000000 
0.243994 18.450563 1.484735 -0.031927 -13.066638 2.846286 -1.321282 21.052482 3.896560 -21.666735 -2.246618 -9.368309 -5.649229 -3.340995 -14.168196 0.556460 9.763800 20.395006 0.000000 0.000000 0.000000 -4.953558 -32.980933 -1.053467 42.021978 20.560208 -7.942022 -11.893387 4.368550 40.998804 -4.463207 21.465753 -29.620424 0.000000 0.000000 0.000000 5.674725 4.347876 1.945357 -6.637360 3.774113 21.882497 -0.661354 3.161514 -12.633583 3.218264 0.065211 -5.358453 1.629103 0.326139 -3.409863 0.000000 0.000000 0.000000 -0.421434 12.612142 8.274563 -68.406111 -7.959108 10.246918 8.093902 -88.510541 0.011791 6.718976 -13.484925 -0.004137 6.830992 -13.440296 0.000000 0.000000 0.000000 0.000000 0.000000 0.000000 0.000000 -2.803920 -11.515852 6.410820 67.463011 5.642415 19.163143 17.557525 75.652709 0.456396 -0.902882 13.631714 0.224828 -0.928223 13.635062 0.000000 0.000000 0.000000 0.000000 0.000000 0.000000 0.000000 
